ffmpeg started on 2025-05-02 at 14:28:41
Report written to "D:\Convert\FFMetrics\reports\ssim_report-6.txt"
Log level: 32
Command line:
ffmpeg -hide_banner -nostdin -i "G:\\\xc0\xed\xe8\xec\xe5\\\xce\xed\xe3\xee\xe8\xed\xe3\xe8\\!_35_\xcb\xe5\xf2\xee_2024\\JamClub\\\xcf\xee\xf7\xe5\xec\xf3 \xe2\xf1\xe5 \xe7\xe0\xe1\xfb\xeb\xe8 \xec\xee\xe9 \xec\xe8\xf0\\JamClub_Naze_Boku_no_Sekai_o_Dare_mo_Oboeteinai_no_ka_10_1080p_HEVC.mkv" -i "G:\\\xc0\xed\xe8\xec\xe5\\\xce\xed\xe3\xee\xe8\xed\xe3\xe8\\!_35_\xcb\xe5\xf2\xee_2024\\JamClub\\\xcf\xee\xf7\xe5\xec\xf3 \xe2\xf1\xe5 \xe7\xe0\xe1\xfb\xeb\xe8 \xec\xee\xe9 \xec\xe8\xf0\\JamClub_Naze_Boku_no_Sekai_o_Dare_mo_Oboeteinai_no_ka_10_1080p.mp4" -lavfi "[0:v]settb=AVTB,setpts=PTS-STARTPTS,format=pix_fmts=yuv420p10,fps=24000/1001,scale=1920:1080:flags=bicubic[main];[1:v]settb=AVTB,setpts=PTS-STARTPTS,format=pix_fmts=yuv420p,fps=24000/1001,scale=1920:1080:flags=bicubic[ref];[main][ref]ssim=eof_action=endall:stats_file='D\\:/Convert/FFMetrics/logs/ssim_logfile-6.txt'" -f null -
Input #0, matroska,webm, from 'G:\Аниме\Онгоинги\!_35_Лето_2024\JamClub\Почему все забыли мой мир\JamClub_Naze_Boku_no_Sekai_o_Dare_mo_Oboeteinai_no_ka_10_1080p_HEVC.mkv':
  Metadata:
    COMPATIBLE_BRANDS: isomiso2avc1mp41
    MAJOR_BRAND     : isom
    MINOR_VERSION   : 512
    ENCODER         : Lavf61.7.100
  Duration: 00:24:02.39, start: -0.001000, bitrate: 1244 kb/s
  Stream #0:0: Video: hevc (Main 10), yuv420p10le(tv, bt709, progressive), 1920x1080 [SAR 1:1 DAR 16:9], 23.98 fps, 23.98 tbr, 1k tbn (default)
      Metadata:
        HANDLER_NAME    : VideoHandler
        VENDOR_ID       : [0][0][0][0]
        ENCODER         : Lavc61.19.100 libx265
        BPS             : 1046550
        DURATION        : 00:24:02.273708333
        NUMBER_OF_FRAMES: 34580
        NUMBER_OF_BYTES : 188676393
        _STATISTICS_WRITING_APP: mkvpropedit v66.0.0 ('Josie') 64-bit
        _STATISTICS_WRITING_DATE_UTC: 2025-04-30 12:54:38
        _STATISTICS_TAGS: BPS DURATION NUMBER_OF_FRAMES NUMBER_OF_BYTES
  Stream #0:1(eng): Audio: aac (LC), 48000 Hz, stereo, fltp (default)
      Metadata:
        HANDLER_NAME    : SoundHandler
        VENDOR_ID       : [0][0][0][0]
        ENCODER         : Lavc61.19.100 aac
        BPS             : 193999
        DURATION        : 00:24:02.349000000
        NUMBER_OF_FRAMES: 67611
        NUMBER_OF_BYTES : 34976926
        _STATISTICS_WRITING_APP: mkvpropedit v66.0.0 ('Josie') 64-bit
        _STATISTICS_WRITING_DATE_UTC: 2025-04-30 12:54:38
        _STATISTICS_TAGS: BPS DURATION NUMBER_OF_FRAMES NUMBER_OF_BYTES
Input #1, mov,mp4,m4a,3gp,3g2,mj2, from 'G:\Аниме\Онгоинги\!_35_Лето_2024\JamClub\Почему все забыли мой мир\JamClub_Naze_Boku_no_Sekai_o_Dare_mo_Oboeteinai_no_ka_10_1080p.mp4':
  Metadata:
    major_brand     : isom
    minor_version   : 512
    compatible_brands: isomiso2avc1mp41
    encoder         : Lavf60.16.100
  Duration: 00:24:02.37, start: 0.000000, bitrate: 4025 kb/s
  Stream #1:0[0x1](und): Video: h264 (High) (avc1 / 0x31637661), yuv420p(progressive), 1920x1080 [SAR 1:1 DAR 16:9], 3827 kb/s, 23.98 fps, 23.98 tbr, 90k tbn (default)
      Metadata:
        handler_name    : VideoHandler
        vendor_id       : [0][0][0][0]
  Stream #1:1[0x2](eng): Audio: aac (LC) (mp4a / 0x6134706D), 48000 Hz, stereo, fltp, 191 kb/s (default)
      Metadata:
        handler_name    : SoundHandler
        vendor_id       : [0][0][0][0]
Stream mapping:
  Stream #0:0 (hevc) -> settb:default
  Stream #1:0 (h264) -> settb:default
  ssim:default -> Stream #0:0 (wrapped_avframe)
  Stream #0:1 -> #0:1 (aac (native) -> pcm_s16le (native))
Output #0, null, to 'pipe:':
  Metadata:
    COMPATIBLE_BRANDS: isomiso2avc1mp41
    MAJOR_BRAND     : isom
    MINOR_VERSION   : 512
    encoder         : Lavf61.7.100
  Stream #0:0: Video: wrapped_avframe, yuv420p10le(tv, bt709, progressive), 1920x1080 [SAR 1:1 DAR 16:9], q=2-31, 200 kb/s, 23.98 fps, 23.98 tbn
      Metadata:
        encoder         : Lavc61.19.100 wrapped_avframe
  Stream #0:1(eng): Audio: pcm_s16le, 48000 Hz, stereo, s16, 1536 kb/s (default)
      Metadata:
        HANDLER_NAME    : SoundHandler
        VENDOR_ID       : [0][0][0][0]
        _STATISTICS_TAGS: BPS DURATION NUMBER_OF_FRAMES NUMBER_OF_BYTES
        BPS             : 193999
        DURATION        : 00:24:02.349000000
        NUMBER_OF_FRAMES: 67611
        NUMBER_OF_BYTES : 34976926
        _STATISTICS_WRITING_APP: mkvpropedit v66.0.0 ('Josie') 64-bit
        _STATISTICS_WRITING_DATE_UTC: 2025-04-30 12:54:38
        encoder         : Lavc61.19.100 pcm_s16le
frame=  113 fps=0.0 q=-0.0 size=N/A time=00:00:04.71 bitrate=N/A speed=9.22x    frame=  270 fps=264 q=-0.0 size=N/A time=00:00:11.26 bitrate=N/A speed=  11x    frame=  477 fps=308 q=-0.0 size=N/A time=00:00:19.89 bitrate=N/A speed=12.9x    frame=  707 fps=344 q=-0.0 size=N/A time=00:00:29.48 bitrate=N/A speed=14.3x    frame=  959 fps=372 q=-0.0 size=N/A time=00:00:39.99 bitrate=N/A speed=15.5x    frame= 1229 fps=398 q=-0.0 size=N/A time=00:00:51.25 bitrate=N/A speed=16.6x    frame= 1473 fps=408 q=-0.0 size=N/A time=00:01:01.43 bitrate=N/A speed=  17x    frame= 1736 fps=422 q=-0.0 size=N/A time=00:01:12.40 bitrate=N/A speed=17.6x    frame= 2007 fps=432 q=-0.0 size=N/A time=00:01:23.70 bitrate=N/A speed=  18x    frame= 2273 fps=441 q=-0.0 size=N/A time=00:01:34.80 bitrate=N/A speed=18.4x    frame= 2502 fps=441 q=-0.0 size=N/A time=00:01:44.35 bitrate=N/A speed=18.4x    frame= 2665 fps=431 q=-0.0 size=N/A time=00:01:51.15 bitrate=N/A speed=  18x    frame= 2850 fps=425 q=-0.0 size=N/A time=00:01:58.86 bitrate=N/A speed=17.7x    frame= 3071 fps=425 q=-0.0 size=N/A time=00:02:08.08 bitrate=N/A speed=17.7x    frame= 3268 fps=422 q=-0.0 size=N/A time=00:02:16.30 bitrate=N/A speed=17.6x    frame= 3452 fps=418 q=-0.0 size=N/A time=00:02:23.97 bitrate=N/A speed=17.4x    frame= 3666 fps=418 q=-0.0 size=N/A time=00:02:32.90 bitrate=N/A speed=17.4x    frame= 3835 fps=413 q=-0.0 size=N/A time=00:02:39.95 bitrate=N/A speed=17.2x    frame= 4006 fps=409 q=-0.0 size=N/A time=00:02:47.08 bitrate=N/A speed=  17x    frame= 4176 fps=404 q=-0.0 size=N/A time=00:02:54.17 bitrate=N/A speed=16.9x    frame= 4348 fps=401 q=-0.0 size=N/A time=00:03:01.34 bitrate=N/A speed=16.7x    frame= 4564 fps=402 q=-0.0 size=N/A time=00:03:10.35 bitrate=N/A speed=16.8x    frame= 4806 fps=405 q=-0.0 size=N/A time=00:03:20.45 bitrate=N/A speed=16.9x    frame= 5032 fps=406 q=-0.0 size=N/A time=00:03:29.87 bitrate=N/A speed=16.9x    frame= 5244 fps=406 q=-0.0 size=N/A time=00:03:38.71 bitrate=N/A speed=16.9x    frame= 5508 fps=411 q=-0.0 size=N/A time=00:03:49.72 bitrate=N/A speed=17.1x    frame= 5775 fps=414 q=-0.0 size=N/A time=00:04:00.86 bitrate=N/A speed=17.3x    frame= 6048 fps=419 q=-0.0 size=N/A time=00:04:12.25 bitrate=N/A speed=17.5x    frame= 6332 fps=423 q=-0.0 size=N/A time=00:04:24.09 bitrate=N/A speed=17.6x    frame= 6614 fps=427 q=-0.0 size=N/A time=00:04:35.85 bitrate=N/A speed=17.8x    frame= 6887 fps=431 q=-0.0 size=N/A time=00:04:47.24 bitrate=N/A speed=  18x    frame= 7154 fps=433 q=-0.0 size=N/A time=00:04:58.38 bitrate=N/A speed=18.1x    frame= 7405 fps=435 q=-0.0 size=N/A time=00:05:08.85 bitrate=N/A speed=18.1x    frame= 7679 fps=438 q=-0.0 size=N/A time=00:05:20.27 bitrate=N/A speed=18.3x    frame= 7968 fps=441 q=-0.0 size=N/A time=00:05:32.33 bitrate=N/A speed=18.4x    frame= 8233 fps=443 q=-0.0 size=N/A time=00:05:43.38 bitrate=N/A speed=18.5x    frame= 8518 fps=446 q=-0.0 size=N/A time=00:05:55.27 bitrate=N/A speed=18.6x    frame= 8794 fps=449 q=-0.0 size=N/A time=00:06:06.78 bitrate=N/A speed=18.7x    frame= 9087 fps=452 q=-0.0 size=N/A time=00:06:19.00 bitrate=N/A speed=18.8x    frame= 9320 fps=452 q=-0.0 size=N/A time=00:06:28.72 bitrate=N/A speed=18.8x    frame= 9559 fps=452 q=-0.0 size=N/A time=00:06:38.68 bitrate=N/A speed=18.8x    frame= 9841 fps=454 q=-0.0 size=N/A time=00:06:50.45 bitrate=N/A speed=18.9x    frame=10117 fps=456 q=-0.0 size=N/A time=00:07:01.96 bitrate=N/A speed=  19x    frame=10352 fps=456 q=-0.0 size=N/A time=00:07:11.76 bitrate=N/A speed=  19x    frame=10600 fps=457 q=-0.0 size=N/A time=00:07:22.10 bitrate=N/A speed=19.1x    frame=10871 fps=458 q=-0.0 size=N/A time=00:07:33.41 bitrate=N/A speed=19.1x    frame=11150 fps=460 q=-0.0 size=N/A time=00:07:45.04 bitrate=N/A speed=19.2x    frame=11399 fps=460 q=-0.0 size=N/A time=00:07:55.43 bitrate=N/A speed=19.2x    frame=11674 fps=462 q=-0.0 size=N/A time=00:08:06.90 bitrate=N/A speed=19.3x    frame=11936 fps=462 q=-0.0 size=N/A time=00:08:17.83 bitrate=N/A speed=19.3x    frame=12205 fps=464 q=-0.0 size=N/A time=00:08:29.05 bitrate=N/A speed=19.3x    frame=12467 fps=464 q=-0.0 size=N/A time=00:08:39.97 bitrate=N/A speed=19.4x    frame=12752 fps=466 q=-0.0 size=N/A time=00:08:51.86 bitrate=N/A speed=19.4x    frame=13031 fps=467 q=-0.0 size=N/A time=00:09:03.50 bitrate=N/A speed=19.5x    frame=13297 fps=468 q=-0.0 size=N/A time=00:09:14.59 bitrate=N/A speed=19.5x    frame=13567 fps=470 q=-0.0 size=N/A time=00:09:25.85 bitrate=N/A speed=19.6x    frame=13827 fps=470 q=-0.0 size=N/A time=00:09:36.70 bitrate=N/A speed=19.6x    frame=14051 fps=469 q=-0.0 size=N/A time=00:09:46.04 bitrate=N/A speed=19.6x    frame=14306 fps=470 q=-0.0 size=N/A time=00:09:56.67 bitrate=N/A speed=19.6x    frame=14593 fps=471 q=-0.0 size=N/A time=00:10:08.64 bitrate=N/A speed=19.7x    frame=14879 fps=473 q=-0.0 size=N/A time=00:10:20.57 bitrate=N/A speed=19.7x    frame=15169 fps=474 q=-0.0 size=N/A time=00:10:32.67 bitrate=N/A speed=19.8x    frame=15426 fps=475 q=-0.0 size=N/A time=00:10:43.39 bitrate=N/A speed=19.8x    frame=15719 fps=476 q=-0.0 size=N/A time=00:10:55.61 bitrate=N/A speed=19.8x    frame=15981 fps=477 q=-0.0 size=N/A time=00:11:06.54 bitrate=N/A speed=19.9x    frame=16237 fps=477 q=-0.0 size=N/A time=00:11:17.21 bitrate=N/A speed=19.9x    frame=16505 fps=477 q=-0.0 size=N/A time=00:11:28.39 bitrate=N/A speed=19.9x    frame=16785 fps=478 q=-0.0 size=N/A time=00:11:40.07 bitrate=N/A speed=  20x    frame=17018 fps=478 q=-0.0 size=N/A time=00:11:49.79 bitrate=N/A speed=19.9x    frame=17245 fps=477 q=-0.0 size=N/A time=00:11:59.26 bitrate=N/A speed=19.9x    frame=17499 fps=477 q=-0.0 size=N/A time=00:12:09.85 bitrate=N/A speed=19.9x    frame=17749 fps=478 q=-0.0 size=N/A time=00:12:20.28 bitrate=N/A speed=19.9x    frame=17995 fps=477 q=-0.0 size=N/A time=00:12:30.54 bitrate=N/A speed=19.9x    frame=18235 fps=477 q=-0.0 size=N/A time=00:12:40.55 bitrate=N/A speed=19.9x    frame=18497 fps=478 q=-0.0 size=N/A time=00:12:51.47 bitrate=N/A speed=19.9x    frame=18722 fps=477 q=-0.0 size=N/A time=00:13:00.86 bitrate=N/A speed=19.9x    frame=18954 fps=477 q=-0.0 size=N/A time=00:13:10.53 bitrate=N/A speed=19.9x    frame=19170 fps=476 q=-0.0 size=N/A time=00:13:19.54 bitrate=N/A speed=19.9x    frame=19398 fps=476 q=-0.0 size=N/A time=00:13:29.05 bitrate=N/A speed=19.8x    frame=19659 fps=476 q=-0.0 size=N/A time=00:13:39.94 bitrate=N/A speed=19.9x    frame=19948 fps=477 q=-0.0 size=N/A time=00:13:51.99 bitrate=N/A speed=19.9x    frame=20218 fps=478 q=-0.0 size=N/A time=00:14:03.25 bitrate=N/A speed=19.9x    frame=20473 fps=478 q=-0.0 size=N/A time=00:14:13.89 bitrate=N/A speed=19.9x    frame=20725 fps=478 q=-0.0 size=N/A time=00:14:24.40 bitrate=N/A speed=19.9x    frame=20984 fps=478 q=-0.0 size=N/A time=00:14:35.20 bitrate=N/A speed=19.9x    frame=21221 fps=478 q=-0.0 size=N/A time=00:14:45.09 bitrate=N/A speed=19.9x    frame=21437 fps=478 q=-0.0 size=N/A time=00:14:54.10 bitrate=N/A speed=19.9x    frame=21654 fps=477 q=-0.0 size=N/A time=00:15:03.15 bitrate=N/A speed=19.9x    frame=21904 fps=477 q=-0.0 size=N/A time=00:15:13.57 bitrate=N/A speed=19.9x    frame=22178 fps=477 q=-0.0 size=N/A time=00:15:25.00 bitrate=N/A speed=19.9x    frame=22422 fps=478 q=-0.0 size=N/A time=00:15:35.18 bitrate=N/A speed=19.9x    frame=22683 fps=478 q=-0.0 size=N/A time=00:15:46.07 bitrate=N/A speed=19.9x    frame=22940 fps=478 q=-0.0 size=N/A time=00:15:56.78 bitrate=N/A speed=19.9x    frame=23179 fps=478 q=-0.0 size=N/A time=00:16:06.75 bitrate=N/A speed=19.9x    frame=23436 fps=478 q=-0.0 size=N/A time=00:16:17.47 bitrate=N/A speed=19.9x    frame=23696 fps=478 q=-0.0 size=N/A time=00:16:28.32 bitrate=N/A speed=19.9x    frame=23949 fps=478 q=-0.0 size=N/A time=00:16:38.87 bitrate=N/A speed=  20x    frame=24180 fps=478 q=-0.0 size=N/A time=00:16:48.50 bitrate=N/A speed=19.9x    frame=24455 fps=479 q=-0.0 size=N/A time=00:16:59.97 bitrate=N/A speed=  20x    frame=24659 fps=478 q=-0.0 size=N/A time=00:17:08.48 bitrate=N/A speed=19.9x    frame=24887 fps=477 q=-0.0 size=N/A time=00:17:17.99 bitrate=N/A speed=19.9x    frame=25096 fps=477 q=-0.0 size=N/A time=00:17:26.71 bitrate=N/A speed=19.9x    frame=25311 fps=476 q=-0.0 size=N/A time=00:17:35.67 bitrate=N/A speed=19.9x    frame=25512 fps=475 q=-0.0 size=N/A time=00:17:44.06 bitrate=N/A speed=19.8x    frame=25731 fps=475 q=-0.0 size=N/A time=00:17:53.19 bitrate=N/A speed=19.8x    frame=25956 fps=474 q=-0.0 size=N/A time=00:18:02.58 bitrate=N/A speed=19.8x    frame=26158 fps=474 q=-0.0 size=N/A time=00:18:11.00 bitrate=N/A speed=19.8x    frame=26387 fps=473 q=-0.0 size=N/A time=00:18:20.55 bitrate=N/A speed=19.7x    frame=26614 fps=473 q=-0.0 size=N/A time=00:18:30.02 bitrate=N/A speed=19.7x    frame=26848 fps=473 q=-0.0 size=N/A time=00:18:39.78 bitrate=N/A speed=19.7x    frame=27083 fps=473 q=-0.0 size=N/A time=00:18:49.58 bitrate=N/A speed=19.7x    frame=27342 fps=473 q=-0.0 size=N/A time=00:19:00.38 bitrate=N/A speed=19.7x    frame=27624 fps=474 q=-0.0 size=N/A time=00:19:12.15 bitrate=N/A speed=19.8x    frame=27905 fps=474 q=-0.0 size=N/A time=00:19:23.87 bitrate=N/A speed=19.8x    frame=28169 fps=475 q=-0.0 size=N/A time=00:19:34.88 bitrate=N/A speed=19.8x    frame=28430 fps=475 q=-0.0 size=N/A time=00:19:45.76 bitrate=N/A speed=19.8x    frame=28671 fps=475 q=-0.0 size=N/A time=00:19:55.81 bitrate=N/A speed=19.8x    frame=28858 fps=474 q=-0.0 size=N/A time=00:20:03.61 bitrate=N/A speed=19.8x    frame=29111 fps=474 q=-0.0 size=N/A time=00:20:14.17 bitrate=N/A speed=19.8x    frame=29362 fps=474 q=-0.0 size=N/A time=00:20:24.64 bitrate=N/A speed=19.8x    frame=29575 fps=474 q=-0.0 size=N/A time=00:20:33.52 bitrate=N/A speed=19.8x    frame=29787 fps=473 q=-0.0 size=N/A time=00:20:42.36 bitrate=N/A speed=19.7x    frame=29965 fps=472 q=-0.0 size=N/A time=00:20:49.79 bitrate=N/A speed=19.7x    frame=30193 fps=472 q=-0.0 size=N/A time=00:20:59.29 bitrate=N/A speed=19.7x    frame=30450 fps=472 q=-0.0 size=N/A time=00:21:10.01 bitrate=N/A speed=19.7x    frame=30715 fps=472 q=-0.0 size=N/A time=00:21:21.07 bitrate=N/A speed=19.7x    frame=30949 fps=472 q=-0.0 size=N/A time=00:21:30.83 bitrate=N/A speed=19.7x    frame=31197 fps=472 q=-0.0 size=N/A time=00:21:41.17 bitrate=N/A speed=19.7x    frame=31435 fps=472 q=-0.0 size=N/A time=00:21:51.10 bitrate=N/A speed=19.7x    frame=31651 fps=472 q=-0.0 size=N/A time=00:22:00.11 bitrate=N/A speed=19.7x    frame=31917 fps=472 q=-0.0 size=N/A time=00:22:11.20 bitrate=N/A speed=19.7x    frame=32163 fps=472 q=-0.0 size=N/A time=00:22:21.46 bitrate=N/A speed=19.7x    frame=32411 fps=472 q=-0.0 size=N/A time=00:22:31.80 bitrate=N/A speed=19.7x    frame=32684 fps=473 q=-0.0 size=N/A time=00:22:43.19 bitrate=N/A speed=19.7x    frame=32940 fps=473 q=-0.0 size=N/A time=00:22:53.87 bitrate=N/A speed=19.7x    frame=33184 fps=473 q=-0.0 size=N/A time=00:23:04.04 bitrate=N/A speed=19.7x    frame=33395 fps=472 q=-0.0 size=N/A time=00:23:12.84 bitrate=N/A speed=19.7x    frame=33560 fps=471 q=-0.0 size=N/A time=00:23:19.73 bitrate=N/A speed=19.7x    frame=33708 fps=470 q=-0.0 size=N/A time=00:23:25.90 bitrate=N/A speed=19.6x    frame=33885 fps=469 q=-0.0 size=N/A time=00:23:33.28 bitrate=N/A speed=19.6x    frame=34067 fps=468 q=-0.0 size=N/A time=00:23:40.87 bitrate=N/A speed=19.5x    frame=34245 fps=467 q=-0.0 size=N/A time=00:23:48.30 bitrate=N/A speed=19.5x    frame=34411 fps=466 q=-0.0 size=N/A time=00:23:55.22 bitrate=N/A speed=19.4x    [Parsed_ssim_10 @ 000001130dcd5000] SSIM Y:0.993153 (21.645187) U:0.993010 (21.555076) V:0.993224 (21.690222) All:0.993141 (21.637486)
[out#0/null @ 000001130a45c100] video:14859KiB audio:270444KiB subtitle:0KiB other streams:0KiB global headers:0KiB muxing overhead: unknown
frame=34580 fps=466 q=-0.0 Lsize=N/A time=00:24:02.27 bitrate=N/A speed=19.4x    
